<?xml version="1.0" encoding="iso-8859-1"?>
<!-- Generator: Adobe Illustrator 19.0.0, SVG Export Plug-In . SVG Version: 6.00 Build 0)  -->
<svg version="1.1" id="Capa_1" xmlns="http://www.w3.org/2000/svg" xmlns:xlink="http://www.w3.org/1999/xlink" x="0px" y="0px"
	 viewBox="0 0 512 512" style="enable-background:new 0 0 512 512;" xml:space="preserve">
<g>
	<g>
		<path d="M393.024,116.669c-0.642,0-1.284,0.006-1.927,0.019c-4.288-29.553-18.11-56.787-39.819-77.944
			C325.641,13.759,291.804,0,255.999,0s-69.642,13.759-95.278,38.744c-21.71,21.157-35.531,48.391-39.82,77.944
			c-0.642-0.013-1.284-0.019-1.926-0.019c-53.839,0-97.641,43.801-97.641,97.64c0,53.839,43.802,97.64,97.641,97.64h51.143v-21.221
			c0-47.355,38.526-85.881,85.881-85.881v30c-30.813,0-55.881,25.068-55.881,55.881v21.221H311.88v51.654H200.118V312h-30v51.603
			h-38.521V512h248.806V363.603h-38.522v-51.654h51.145c53.839,0,97.64-43.801,97.64-97.64
			C490.666,160.47,446.863,116.669,393.024,116.669z M270.999,464.583h-30V411.02h30V464.583z"/>
	</g>
</g>
<g>
</g>
<g>
</g>
<g>
</g>
<g>
</g>
<g>
</g>
<g>
</g>
<g>
</g>
<g>
</g>
<g>
</g>
<g>
</g>
<g>
</g>
<g>
</g>
<g>
</g>
<g>
</g>
<g>
</g>
</svg>
