<svg height="512" viewBox="0 0 512 512" width="512" xmlns="http://www.w3.org/2000/svg"><g id="Outline"><path d="m136 16h-112a8 8 0 0 0 -8 8v112a8 8 0 0 0 8 8h112a8 8 0 0 0 8-8v-112a8 8 0 0 0 -8-8zm-72 16h32v24h-32zm64 96h-96v-96h16v32a8 8 0 0 0 8 8h48a8 8 0 0 0 8-8v-32h16z"/><path d="m96 96h16v16h-16z"/><path d="m136 368h-112a8 8 0 0 0 -8 8v112a8 8 0 0 0 8 8h112a8 8 0 0 0 8-8v-112a8 8 0 0 0 -8-8zm-72 16h32v24h-32zm64 96h-96v-96h16v32a8 8 0 0 0 8 8h48a8 8 0 0 0 8-8v-32h16z"/><path d="m96 448h16v16h-16z"/><path d="m488 16h-112a8 8 0 0 0 -8 8v112a8 8 0 0 0 8 8h112a8 8 0 0 0 8-8v-112a8 8 0 0 0 -8-8zm-72 16h32v24h-32zm64 96h-96v-96h16v32a8 8 0 0 0 8 8h48a8 8 0 0 0 8-8v-32h16z"/><path d="m448 96h16v16h-16z"/><path d="m488 368h-112a8 8 0 0 0 -8 8v112a8 8 0 0 0 8 8h112a8 8 0 0 0 8-8v-112a8 8 0 0 0 -8-8zm-72 16h32v24h-32zm64 96h-96v-96h16v32a8 8 0 0 0 8 8h48a8 8 0 0 0 8-8v-32h16z"/><path d="m448 448h16v16h-16z"/><path d="m352 152h-192a8 8 0 0 0 -8 8v32a8 8 0 0 0 8 8v168a8 8 0 0 0 8 8h176a8 8 0 0 0 8-8v-168a8 8 0 0 0 8-8v-32a8 8 0 0 0 -8-8zm-184 16h176v16h-176zm128 96h-80v-16h80zm-80 16h80v16h-80zm0 32h80v16h-80zm0 32h80v16h-80zm120 16h-24v-120a8 8 0 0 0 -8-8h-96a8 8 0 0 0 -8 8v120h-24v-160h160z"/><path d="m356.006 82.761c-4.521-2.615-9.2-5.08-13.9-7.327l-6.895 14.437c4.327 2.067 8.629 4.335 12.787 6.74z"/><path d="m248 72.195v63.805h16v-63.823a182.682 182.682 0 0 1 60.181 12.866l5.931-14.859a200.438 200.438 0 0 0 -174.118 12.577l8.012 13.85a183.8 183.8 0 0 1 83.994-24.416z"/><path d="m96.611 164.006-13.85-8.012c-2.615 4.521-5.08 9.2-7.327 13.9l14.437 6.9c2.067-4.328 4.335-8.63 6.74-12.788z"/><path d="m85.043 187.819-14.859-5.931a200.438 200.438 0 0 0 12.577 174.118l13.85-8.012a183.8 183.8 0 0 1 -24.416-83.994h71.805v-16h-71.823a182.682 182.682 0 0 1 12.866-60.181z"/><path d="m155.994 429.239c4.521 2.615 9.2 5.08 13.9 7.327l6.9-14.437c-4.327-2.067-8.629-4.335-12.787-6.74z"/><path d="m264 439.805v-47.805h-16v47.823a182.682 182.682 0 0 1 -60.181-12.866l-5.931 14.859a200.438 200.438 0 0 0 174.118-12.577l-8.012-13.85a183.8 183.8 0 0 1 -83.994 24.416z"/><path d="m415.389 347.994 13.85 8.012c2.615-4.521 5.08-9.2 7.327-13.9l-14.437-6.895c-2.067 4.323-4.335 8.625-6.74 12.783z"/><path d="m426.957 324.181 14.859 5.931a200.438 200.438 0 0 0 -12.577-174.118l-13.85 8.012a183.8 183.8 0 0 1 24.416 83.994h-71.805v16h71.823a182.682 182.682 0 0 1 -12.866 60.181z"/></g></svg>